<mxfile host="app.diagrams.net" modified="2024-03-29T16:21:11.188Z" agent="Mozilla/5.0 (Windows NT 10.0; Win64; x64) AppleWebKit/537.36 (KHTML, like Gecko) Chrome/122.0.0.0 Safari/537.36 Edg/122.0.0.0" version="24.2.1" etag="ud7oKVkNMMFkKFZq4H9R" type="github">
  <diagram name="Page-1" id="BCTRU9d8gS4KF3V8Lc6X">
    <mxGraphModel>
      <root>
        <mxCell id="0" />
        <mxCell id="1" parent="0" />
      </root>
    </mxGraphModel>
  </diagram>
</mxfile>
